<?xml version="1.0" encoding="UTF-8" standalone="no"?>
<svg xmlns="http://www.w3.org/2000/svg" version="1.1" width="77" height="82">
  <path d="M 38.5,1 28.125,21.21875 c 1.980001,-0.907 3.99375,-1.20625 6.09375,-0.90625 l 0,33.5 c -3.35,-0.23 -5.8125,-0.10625 -8.3125,0.59375 -1,-15.3 -5,-23.8125 -9,-31.8125 1.75,-0.91 3.39375,-0.6 5.09375,-0.25 -4.4,-5.4 -10.3125,-9.5525 -20.8125,-9.8125 9.2,11.1 17.5125,26.1125 18.3125,49.8125 l -0.03125,0.84375 c 4.2,-1 7.65,-2.2975 14.75,-2.1875 l 0,20 8.5625,0 0,-20 c 7.1,-0.11 10.55,1.1875 14.75,2.1875 L 57.5,62.34375 c 0.8,-23.7 9.1125,-38.7125 18.3125,-49.8125 -10.5,0.26 -16.4125,4.4125 -20.8125,9.8125 1.7,-0.35 3.34375,-0.66 5.09375,0.25 -4,8 -8,16.5125 -9,31.8125 -2.5,-0.7 -4.9625,-0.82375 -8.3125,-0.59375 l 0,-33.5 c 2.1,-0.3 4.113749,-7.5e-4 6.09375,0.90625 z" id="path2987" style="fill:#000000;fill-opacity:1;stroke:none"/>
</svg>